<svg xmlns="http://www.w3.org/2000/svg" xmlns:xlink="http://www.w3.org/1999/xlink" width="500" zoomAndPan="magnify" viewBox="0 0 375 374.999991" height="500" preserveAspectRatio="xMidYMid meet" version="1.0"><defs><clipPath id="078b85713f"><path d="M 24.828125 81 L 350.328125 81 L 350.328125 294 L 24.828125 294 Z M 24.828125 81 " clip-rule="nonzero"/></clipPath></defs><g clip-path="url(#078b85713f)"><path fill="#ffffff" d="M 331.523438 81.28125 L 43.1875 81.28125 C 42.585938 81.28125 41.980469 81.3125 41.378906 81.371094 C 40.777344 81.433594 40.179688 81.523438 39.585938 81.640625 C 38.992188 81.757812 38.40625 81.90625 37.828125 82.082031 C 37.246094 82.257812 36.679688 82.460938 36.121094 82.695312 C 35.5625 82.925781 35.015625 83.183594 34.480469 83.46875 C 33.949219 83.753906 33.429688 84.066406 32.925781 84.402344 C 32.421875 84.738281 31.9375 85.097656 31.46875 85.484375 C 31.003906 85.867188 30.554688 86.273438 30.128906 86.699219 C 29.699219 87.128906 29.292969 87.578125 28.910156 88.042969 C 28.527344 88.511719 28.164062 88.996094 27.828125 89.5 C 27.492188 90.003906 27.183594 90.519531 26.898438 91.054688 C 26.609375 91.589844 26.351562 92.132812 26.121094 92.695312 C 25.890625 93.253906 25.683594 93.820312 25.507812 94.398438 C 25.332031 94.980469 25.1875 95.566406 25.066406 96.160156 C 24.949219 96.75 24.859375 97.351562 24.800781 97.953125 C 24.738281 98.554688 24.710938 99.15625 24.707031 99.761719 L 24.707031 275.503906 C 24.710938 276.109375 24.738281 276.710938 24.800781 277.316406 C 24.859375 277.917969 24.949219 278.515625 25.066406 279.109375 C 25.1875 279.703125 25.332031 280.289062 25.507812 280.867188 C 25.683594 281.445312 25.890625 282.015625 26.121094 282.574219 C 26.351562 283.132812 26.609375 283.679688 26.898438 284.210938 C 27.183594 284.746094 27.492188 285.265625 27.828125 285.765625 C 28.164062 286.269531 28.527344 286.753906 28.910156 287.222656 C 29.292969 287.691406 29.699219 288.136719 30.128906 288.566406 C 30.554688 288.992188 31.003906 289.398438 31.46875 289.785156 C 31.9375 290.167969 32.421875 290.527344 32.925781 290.863281 C 33.429688 291.199219 33.949219 291.511719 34.480469 291.796875 C 35.015625 292.082031 35.5625 292.339844 36.121094 292.574219 C 36.679688 292.804688 37.246094 293.007812 37.828125 293.183594 C 38.40625 293.359375 38.992188 293.507812 39.585938 293.625 C 40.179688 293.746094 40.777344 293.832031 41.378906 293.894531 C 41.980469 293.953125 42.585938 293.984375 43.1875 293.984375 L 331.523438 293.984375 C 332.128906 293.984375 332.730469 293.953125 333.335938 293.894531 C 333.9375 293.835938 334.535156 293.746094 335.128906 293.625 C 335.722656 293.507812 336.308594 293.359375 336.886719 293.183594 C 337.464844 293.007812 338.035156 292.804688 338.59375 292.574219 C 339.152344 292.339844 339.699219 292.082031 340.230469 291.796875 C 340.765625 291.511719 341.285156 291.203125 341.789062 290.863281 C 342.289062 290.527344 342.777344 290.167969 343.242188 289.785156 C 343.710938 289.402344 344.160156 288.996094 344.585938 288.566406 C 345.015625 288.140625 345.421875 287.691406 345.804688 287.222656 C 346.1875 286.757812 346.550781 286.269531 346.886719 285.769531 C 347.222656 285.265625 347.53125 284.746094 347.816406 284.210938 C 348.105469 283.679688 348.363281 283.132812 348.59375 282.574219 C 348.828125 282.015625 349.03125 281.445312 349.207031 280.867188 C 349.382812 280.289062 349.53125 279.703125 349.648438 279.109375 C 349.765625 278.515625 349.855469 277.917969 349.914062 277.316406 C 349.976562 276.714844 350.003906 276.109375 350.007812 275.503906 L 350.007812 99.761719 C 350.003906 99.15625 349.976562 98.554688 349.914062 97.953125 C 349.855469 97.347656 349.765625 96.75 349.648438 96.160156 C 349.53125 95.566406 349.382812 94.980469 349.207031 94.398438 C 349.03125 93.820312 348.828125 93.25 348.59375 92.691406 C 348.363281 92.132812 348.105469 91.585938 347.816406 91.054688 C 347.53125 90.519531 347.222656 90.003906 346.886719 89.5 C 346.550781 88.996094 346.1875 88.511719 345.804688 88.042969 C 345.421875 87.574219 345.015625 87.128906 344.585938 86.699219 C 344.160156 86.273438 343.710938 85.867188 343.242188 85.480469 C 342.777344 85.097656 342.289062 84.738281 341.789062 84.402344 C 341.285156 84.066406 340.765625 83.753906 340.230469 83.46875 C 339.699219 83.183594 339.152344 82.925781 338.59375 82.691406 C 338.035156 82.460938 337.464844 82.257812 336.886719 82.082031 C 336.308594 81.90625 335.722656 81.757812 335.128906 81.640625 C 334.535156 81.523438 333.9375 81.433594 333.335938 81.371094 C 332.730469 81.3125 332.128906 81.28125 331.523438 81.28125 Z M 238.480469 187.632812 L 339.996094 97.144531 C 340.273438 97.996094 340.421875 98.867188 340.433594 99.761719 L 340.433594 275.503906 C 340.421875 276.398438 340.273438 277.273438 339.996094 278.121094 Z M 331.511719 90.859375 C 331.851562 90.875 332.1875 90.90625 332.523438 90.960938 L 193.25 215.101562 C 192.847656 215.460938 192.414062 215.785156 191.953125 216.066406 C 191.488281 216.347656 191.007812 216.582031 190.5 216.777344 C 189.996094 216.96875 189.476562 217.113281 188.941406 217.210938 C 188.410156 217.3125 187.875 217.359375 187.332031 217.359375 C 186.792969 217.359375 186.253906 217.3125 185.722656 217.210938 C 185.191406 217.113281 184.671875 216.96875 184.164062 216.777344 C 183.660156 216.582031 183.175781 216.347656 182.714844 216.066406 C 182.25 215.785156 181.816406 215.460938 181.414062 215.101562 L 42.179688 90.960938 C 42.515625 90.90625 42.851562 90.875 43.1875 90.859375 Z M 34.722656 278.121094 C 34.441406 277.273438 34.296875 276.398438 34.285156 275.503906 L 34.285156 99.761719 C 34.296875 98.867188 34.441406 97.996094 34.722656 97.144531 L 136.234375 187.632812 Z M 43.1875 284.414062 C 42.851562 284.402344 42.515625 284.367188 42.179688 284.316406 L 143.417969 194.054688 L 175.070312 222.25 C 175.90625 223 176.808594 223.664062 177.765625 224.25 C 178.726562 224.832031 179.730469 225.324219 180.78125 225.726562 C 181.832031 226.125 182.910156 226.425781 184.015625 226.628906 C 185.121094 226.835938 186.234375 226.9375 187.359375 226.9375 C 188.480469 226.9375 189.59375 226.835938 190.699219 226.628906 C 191.804688 226.425781 192.882812 226.125 193.933594 225.726562 C 194.984375 225.324219 195.988281 224.832031 196.949219 224.25 C 197.90625 223.664062 198.808594 223 199.644531 222.25 L 231.289062 194.046875 L 332.527344 284.304688 C 332.191406 284.359375 331.855469 284.394531 331.515625 284.40625 Z M 43.1875 284.414062 " fill-opacity="1" fill-rule="nonzero"/></g></svg>